<?xml version="1.0" encoding="UTF-8" standalone="no"?>
<!-- Created with Inkscape (http://www.inkscape.org/) -->

<svg
   xmlns:dc="http://purl.org/dc/elements/1.1/"
   xmlns:cc="http://creativecommons.org/ns#"
   xmlns:rdf="http://www.w3.org/1999/02/22-rdf-syntax-ns#"
   xmlns:svg="http://www.w3.org/2000/svg"
   xmlns="http://www.w3.org/2000/svg"
   xmlns:sodipodi="http://sodipodi.sourceforge.net/DTD/sodipodi-0.dtd"
   xmlns:inkscape="http://www.inkscape.org/namespaces/inkscape"
   width="210mm"
   height="297mm"
   viewBox="0 0 744.09448819 1052.3622047"
   id="svg2"
   version="1.1"
   inkscape:version="0.91 r13725"
   sodipodi:docname="CrateX.svg"
   inkscape:export-filename="C:\Users\eduardo\Desktop\CrateX (no transparency).png"
   inkscape:export-xdpi="514.72406"
   inkscape:export-ydpi="514.72406"
   enable-background="new">
  <defs
     id="defs4">
    <inkscape:perspective
       sodipodi:type="inkscape:persp3d"
       inkscape:vp_x="368.42193 : 182.88624 : 0"
       inkscape:vp_y="-121.86934 : 992.54617 : 0"
       inkscape:vp_z="369.68974 : 180.30974 : 0"
       inkscape:persp3d-origin="-148.13133 : 245.43026 : 1"
       id="perspective4745" />
  </defs>
  <sodipodi:namedview
     id="base"
     pagecolor="#ffffff"
     bordercolor="#666666"
     borderopacity="1.0"
     inkscape:pageopacity="0.0"
     inkscape:pageshadow="2"
     inkscape:zoom="0.98994949"
     inkscape:cx="303.75147"
     inkscape:cy="474.32282"
     inkscape:document-units="px"
     inkscape:current-layer="layer3"
     showgrid="false"
     showguides="true"
     inkscape:snap-text-baseline="false"
     inkscape:window-width="1366"
     inkscape:window-height="705"
     inkscape:window-x="-8"
     inkscape:window-y="-8"
     inkscape:window-maximized="1" />
  <metadata
     id="metadata7">
    <rdf:RDF>
      <cc:Work
         rdf:about="">
        <dc:format>image/svg+xml</dc:format>
        <dc:type
           rdf:resource="http://purl.org/dc/dcmitype/StillImage" />
        <dc:title></dc:title>
      </cc:Work>
    </rdf:RDF>
  </metadata>
  <g
     inkscape:groupmode="layer"
     id="layer11"
     inkscape:label="Merge"
     style="display:inline">
    <g
       inkscape:groupmode="layer"
       id="layer7"
       inkscape:label="Layer 3"
       style="display:inline">
      <rect
         style="opacity:1;fill:#a4201b;fill-opacity:1;stroke:none;stroke-width:1.35099995;stroke-linecap:round;stroke-linejoin:miter;stroke-miterlimit:4;stroke-dasharray:none;stroke-dashoffset:0;stroke-opacity:1"
         id="rect4450"
         width="630.33521"
         height="278.80209"
         x="58.588848"
         y="335.1539" />
      <rect
         style="display:inline;opacity:0.98000004;fill:#ffffff;fill-opacity:1;stroke:none;stroke-width:1.35099995;stroke-linecap:round;stroke-linejoin:miter;stroke-miterlimit:4;stroke-dasharray:none;stroke-dashoffset:0;stroke-opacity:1"
         id="rect5053-2-2"
         width="300.01532"
         height="62.629482"
         x="231.32494"
         y="538.69965" />
      <rect
         style="opacity:0.98000004;fill:#979797;fill-opacity:0.6927711;stroke:none;stroke-width:1.35099995;stroke-linecap:round;stroke-linejoin:miter;stroke-miterlimit:4;stroke-dasharray:none;stroke-dashoffset:0;stroke-opacity:1"
         id="rect5053-2"
         width="300.01532"
         height="62.629482"
         x="231.83002"
         y="539.20471" />
    </g>
    <g
       inkscape:groupmode="layer"
       id="layer4"
       inkscape:label="Layer 2"
       style="display:inline">
      <flowRoot
         xml:space="preserve"
         id="flowRoot4163"
         style="font-style:normal;font-weight:normal;font-size:40px;line-height:125%;font-family:sans-serif;letter-spacing:0px;word-spacing:0px;fill:#000000;fill-opacity:1;stroke:none;stroke-width:1px;stroke-linecap:butt;stroke-linejoin:miter;stroke-opacity:1"><flowRegion
           id="flowRegion4165"><rect
             id="rect4167"
             width="291.42856"
             height="165.71428"
             x="242.85715"
             y="380.93362" /></flowRegion><flowPara
           id="flowPara4169"></flowPara></flowRoot>      <text
         xml:space="preserve"
         style="font-style:normal;font-weight:normal;font-size:40px;line-height:125%;font-family:sans-serif;letter-spacing:10px;word-spacing:0px;fill:#000000;fill-opacity:1;stroke:none;stroke-width:1px;stroke-linecap:butt;stroke-linejoin:miter;stroke-opacity:1"
         x="144.28569"
         y="536.64789"
         id="text4171"
         sodipodi:linespacing="125%"><tspan
           sodipodi:role="line"
           id="tspan4173"
           x="144.28569"
           y="536.64789"
           style="font-style:normal;font-variant:normal;font-weight:normal;font-stretch:condensed;font-size:180px;font-family:'Horizon BT';-inkscape-font-specification:'Horizon BT Condensed';letter-spacing:10px;word-spacing:0px"
           dx="1.7">CRATE<tspan
   style="letter-spacing:10px;word-spacing:0px;fill:#ffffff;fill-opacity:1"
   id="tspan4177">x</tspan></tspan></text>
    </g>
    <g
       style="display:inline"
       inkscape:label="Layer 2 copy"
       id="g4330"
       inkscape:groupmode="layer">
      <flowRoot
         style="font-style:normal;font-weight:normal;font-size:40px;line-height:125%;font-family:sans-serif;letter-spacing:0px;word-spacing:0px;fill:#000000;fill-opacity:1;stroke:none;stroke-width:1px;stroke-linecap:butt;stroke-linejoin:miter;stroke-opacity:1"
         id="flowRoot4332"
         xml:space="preserve"><flowRegion
           id="flowRegion4334"><rect
             y="380.93362"
             x="242.85715"
             height="165.71428"
             width="291.42856"
             id="rect4336" /></flowRegion><flowPara
           id="flowPara4338"></flowPara></flowRoot>      <rect
         style="display:inline;opacity:1;fill:#dc0000;fill-opacity:1;stroke:none;stroke-width:1.35099995;stroke-linecap:round;stroke-linejoin:miter;stroke-miterlimit:4;stroke-dasharray:none;stroke-dashoffset:0;stroke-opacity:1"
         id="rect4356-9-3"
         width="44.53476"
         height="17.16515"
         x="-417.36572"
         y="587.79047"
         transform="matrix(0.89152201,-0.45297737,0.82394388,0.56667141,0,0)" />
      <rect
         style="display:inline;opacity:1;fill:#dc0000;fill-opacity:1;stroke:none;stroke-width:1.35099995;stroke-linecap:round;stroke-linejoin:miter;stroke-miterlimit:4;stroke-dasharray:none;stroke-dashoffset:0;stroke-opacity:1"
         id="rect4356-9-3-3"
         width="44.53476"
         height="17.16515"
         x="-417.77435"
         y="610.58289"
         transform="matrix(0.89152201,-0.45297737,0.82394388,0.56667141,0,0)" />
      <rect
         style="display:inline;opacity:1;fill:#dc0000;fill-opacity:1;stroke:none;stroke-width:1.35099995;stroke-linecap:round;stroke-linejoin:miter;stroke-miterlimit:4;stroke-dasharray:none;stroke-dashoffset:0;stroke-opacity:1"
         id="rect4356-9-3-3-4"
         width="44.53476"
         height="17.16515"
         x="-417.79449"
         y="632.37372"
         transform="matrix(0.89152201,-0.45297737,0.82394388,0.56667141,0,0)" />
      <rect
         style="display:inline;opacity:1;fill:#dc0000;fill-opacity:1;stroke:none;stroke-width:1.35099995;stroke-linecap:round;stroke-linejoin:miter;stroke-miterlimit:4;stroke-dasharray:none;stroke-dashoffset:0;stroke-opacity:1"
         id="rect4356-9-3-5"
         width="44.53476"
         height="17.16515"
         x="-729.25018"
         y="135.2905"
         transform="matrix(-0.89152201,-0.45297737,-0.82394388,0.56667141,0,0)" />
      <rect
         style="display:inline;opacity:1;fill:#dc0000;fill-opacity:1;stroke:none;stroke-width:1.35099995;stroke-linecap:round;stroke-linejoin:miter;stroke-miterlimit:4;stroke-dasharray:none;stroke-dashoffset:0;stroke-opacity:1"
         id="rect4356-9-3-3-3"
         width="44.53476"
         height="17.16515"
         x="-729.65881"
         y="158.08292"
         transform="matrix(-0.89152201,-0.45297737,-0.82394388,0.56667141,0,0)" />
      <rect
         style="display:inline;opacity:1;fill:#dc0000;fill-opacity:1;stroke:none;stroke-width:1.35099995;stroke-linecap:round;stroke-linejoin:miter;stroke-miterlimit:4;stroke-dasharray:none;stroke-dashoffset:0;stroke-opacity:1"
         id="rect4356-9-3-3-4-4"
         width="44.53476"
         height="17.16515"
         x="-729.67896"
         y="179.87375"
         transform="matrix(-0.89152201,-0.45297737,-0.82394388,0.56667141,0,0)" />
    </g>
    <g
       inkscape:groupmode="layer"
       id="layer3"
       inkscape:label="Layer 1"
       style="display:inline">
      <path
         style="opacity:1;fill:#a4201b;fill-opacity:1;stroke:none;stroke-width:1.35099995;stroke-linecap:round;stroke-linejoin:miter;stroke-miterlimit:4;stroke-dasharray:none;stroke-dashoffset:0;stroke-opacity:1"
         d="m 28.572266,312.36133 0,331.42969 671.427734,0 0,-331.42969 -671.427734,0 z m 141.320314,99.39453 22.85156,0 c 5.27344,0 9.375,1.49414 12.30469,4.48242 2.98828,2.98828 4.48242,7.17774 4.48242,12.56836 l 0,6.41602 0,9.84375 -20.74219,10.37109 0,-13.52344 0,-10.38281 -14.9414,0 0,85.3418 14.9414,0 0,-17.66602 20.74219,-10.63476 0,30.9375 c 0,5.44921 -1.46484,9.66796 -4.39453,12.65625 -2.92969,2.98828 -7.06055,4.48242 -12.39258,4.48242 l -22.85156,0 c -5.21485,0 -9.28711,-1.49414 -12.2168,-4.48242 -2.87109,-2.98829 -4.30664,-7.20704 -4.30664,-12.65625 l 0,-90.70313 c 0,-5.39062 1.43555,-9.58008 4.30664,-12.56836 2.92969,-2.98828 7.00195,-4.48242 12.2168,-4.48242 z m 64.66797,0 39.46289,0 c 5.21484,0 9.28711,1.49414 12.21679,4.48242 2.98829,2.98828 4.48243,7.17774 4.48243,12.56836 l 0,44.82422 -15.11719,7.73437 23.37891,55.28321 -21.44532,0 -19.42383,-46.23047 -3.07617,1.58203 0,44.64844 -20.47851,0 0,-124.89258 z m 97.53906,0 22.93945,0 c 5.21485,0 9.28711,1.49414 12.2168,4.48242 2.98828,2.98828 4.48242,7.17774 4.48242,12.56836 l 0,107.8418 -20.47851,0 0,-52.91016 -15.20508,7.73438 0,45.17578 -20.47852,0 0,-107.8418 c 0,-5.39062 1.43555,-9.58008 4.30664,-12.56836 2.92969,-2.98828 7.00196,-4.48242 12.2168,-4.48242 z m 58.51562,0 60.90821,0 0,19.95117 -20.21485,0 0,104.94141 -20.47851,0 0,-104.94141 -20.21485,0 0,-19.95117 z m 79.60938,0 49.48242,0 0,19.95117 -29.00391,0 0,32.25586 29.00391,-14.58984 0,22.32422 -29.00391,14.76562 0,30.23438 29.00391,0 0,19.95117 -49.48242,0 0,-124.89258 z m -215.18555,19.77539 0,38.14453 15.20508,-7.55859 0,-30.58594 -15.20508,0 z m 81.01563,0 0,37.61719 15.20508,-7.38282 0,-30.23437 -15.20508,0 z m 199.36523,5.00977 20.21485,0 9.49218,25.40039 9.58008,-25.40039 20.12695,0 -19.42382,48.42773 20.65429,51.67969 -20.47851,0 -10.45899,-27.68555 -10.45898,27.68555 -20.6543,0 20.83008,-51.67969 -19.42383,-48.42773 z m -278.41797,111.07421 5.07617,0 0,1.66407 -1.68554,0 0,8.74414 -1.70508,0 0,-8.74414 -1.68555,0 0,-1.66407 z m 9.16016,0 1.69336,0 0,4.36524 1.29492,-0.64453 0,-3.72071 1.69336,0 0,10.40821 -1.69336,0 0,-4.82617 -1.29492,0.6582 0,4.16797 -1.69336,0 0,-10.40821 z m 9.30859,0 1.70508,0 0,10.40821 -1.70508,0 0,-10.40821 z m 6.36133,0 1.69336,0 0.006,0.82032 c 0.0439,-0.27344 0.15039,-0.47852 0.31641,-0.61524 0.16601,-0.13672 0.39062,-0.20508 0.67382,-0.20508 l 0.58594,0 c 0.43457,0 0.77344,0.12598 1.01758,0.375 0.24902,0.24903 0.37305,0.59766 0.37305,1.04688 l 0,8.98633 -1.70703,0 0,-8.74414 -1.26563,0 0,8.74414 -1.69336,0 0,-10.40821 z m 9.29297,0 1.69336,0 0,3.82422 1.71289,-3.82422 1.80273,0 -1.98632,4.36524 2.47656,6.04297 -1.7793,0 -1.62695,-4.37891 -0.59961,1.40625 0,2.97266 -1.69336,0 0,-10.40821 z m 50.78711,0 1.9043,0 c 0.43945,0 0.78125,0.12598 1.02539,0.375 0.24902,0.24903 0.37304,0.59766 0.37304,1.04688 l 0,1.35547 -1.72851,0.86328 0,-1.99219 -1.24414,0 0,7.11133 1.24414,0 0,-1.4707 1.72851,-0.88672 0,2.57812 c 0,0.4541 -0.12109,0.80567 -0.36523,1.05469 -0.24414,0.24902 -0.58887,0.37305 -1.0332,0.37305 l -1.9043,0 c -0.43457,0 -0.77344,-0.12403 -1.01758,-0.37305 -0.23926,-0.24902 -0.35937,-0.60059 -0.35937,-1.05469 l 0,-7.55859 c 0,-0.44922 0.12011,-0.79785 0.35937,-1.04688 0.24414,-0.24902 0.58301,-0.375 1.01758,-0.375 z m 7.91601,0 3.28907,0 c 0.43457,0 0.77343,0.12598 1.01758,0.375 0.24902,0.24903 0.37304,0.59766 0.37304,1.04688 l 0,3.73437 -1.25976,0.64454 1.94922,4.60742 -1.78711,0 -1.61914,-3.85156 -0.25586,0.13085 0,3.72071 -1.70704,0 0,-10.40821 z m 9.27735,0 4.12305,0 0,1.66407 -2.41602,0 0,2.6875 2.41602,-1.2168 0,1.86133 -2.41602,1.23047 0,2.51953 2.41602,0 0,1.66211 -4.12305,0 0,-10.40821 z m 9.92187,0 1.91211,0 c 0.43457,0 0.77344,0.12598 1.01758,0.375 0.24902,0.24903 0.375,0.59766 0.375,1.04688 l 0,8.98633 -1.70703,0 0,-4.40821 -1.26758,0.64454 0,3.76367 -1.70703,0 0,-8.98633 c 0,-0.44922 0.12012,-0.79785 0.35938,-1.04688 0.24414,-0.24902 0.583,-0.375 1.01757,-0.375 z m 7.4043,0 5.07617,0 0,1.66407 -1.68554,0 0,8.74414 -1.70704,0 0,-8.74414 -1.68359,0 0,-1.66407 z m 9.16016,0 4.12304,0 0,1.66407 -2.41601,0 0,2.6875 2.41601,-1.2168 0,1.86133 -2.41601,1.23047 0,2.51953 2.41601,0 0,1.66211 -4.12304,0 0,-10.40821 z m 48.60351,0 1.70703,0 0,10.40821 -1.70703,0 0,-10.40821 z m 6.36328,0 1.69141,0 0.008,0.82032 c 0.0439,-0.27344 0.14844,-0.47852 0.31446,-0.61524 0.16601,-0.13672 0.39062,-0.20508 0.67382,-0.20508 l 0.58594,0 c 0.43457,0 0.77539,0.12598 1.01953,0.375 0.24903,0.24903 0.37305,0.59766 0.37305,1.04688 l 0,8.98633 -1.70703,0 0,-8.74414 -1.26758,0 0,8.74414 -1.69141,0 0,-10.40821 z m 9.30664,0 1.69336,0 0.006,0.82032 c 0.0439,-0.27344 0.15039,-0.47852 0.31641,-0.61524 0.16602,-0.13672 0.39062,-0.20508 0.67383,-0.20508 l 0.58593,0 c 0.43458,0 0.77344,0.12598 1.01758,0.375 0.24903,0.24903 0.37305,0.59766 0.37305,1.04688 l 0,8.98633 -1.70703,0 0,-8.74414 -1.26563,0 0,8.74414 -1.69336,0 0,-10.40821 z m 10.65625,0 1.9043,0 c 0.43945,0 0.78125,0.12598 1.02539,0.375 0.24903,0.24903 0.37305,0.59766 0.37305,1.04688 l 0,7.55859 c 0,0.4541 -0.12305,0.80567 -0.36719,1.05469 -0.24414,0.24902 -0.58691,0.37305 -1.03125,0.37305 l -1.9043,0 c -0.43457,0 -0.77539,-0.12403 -1.01953,-0.37305 -0.23925,-0.24902 -0.35742,-0.60059 -0.35742,-1.05469 l 0,-7.55859 c 0,-0.44922 0.11817,-0.79785 0.35742,-1.04688 0.24414,-0.24902 0.58496,-0.375 1.01953,-0.375 z m 7.1836,0 1.7207,0 1.11328,6.64454 1.10547,-6.64454 1.71485,0 -1.83204,10.40821 -1.97656,0 -1.8457,-10.40821 z m 10.91797,0 1.91211,0 c 0.43457,0 0.77343,0.12598 1.01757,0.375 0.24903,0.24903 0.37305,0.59766 0.37305,1.04688 l 0,8.98633 -1.70703,0 0,-4.40821 -1.26563,0.64454 0,3.76367 -1.70703,0 0,-8.98633 c 0,-0.44922 0.12012,-0.79785 0.35938,-1.04688 0.24414,-0.24902 0.58301,-0.375 1.01758,-0.375 z m 7.40234,0 5.07617,0 0,1.66407 -1.68554,0 0,8.74414 -1.70508,0 0,-8.74414 -1.68555,0 0,-1.66407 z m 9.16211,0 4.12305,0 0,1.66407 -2.41797,0 0,2.6875 2.41797,-1.2168 0,1.86133 -2.41797,1.23047 0,2.51953 2.41797,0 0,1.66211 -4.12305,0 0,-10.40821 z m -143.65234,1.64844 0,3.17969 1.26562,-0.63086 0,-2.54883 -1.26562,0 z m 17.82226,0 0,3.13477 1.26758,-0.61524 0,-2.51953 -1.26758,0 z m 91.49219,0 0,7.11133 1.24609,0 0,-7.11133 -1.24609,0 z m 18.10351,0 0,3.13477 1.26563,-0.61524 0,-2.51953 -1.26563,0 z"
         id="rect4160"
         inkscape:connector-curvature="0" />
    </g>
    <g
       inkscape:groupmode="layer"
       id="layer9"
       inkscape:label="Layer 5"
       style="display:inline">
      <flowRoot
         xml:space="preserve"
         id="flowRoot4868"
         style="font-style:normal;font-weight:normal;font-size:40px;line-height:125%;font-family:sans-serif;letter-spacing:0px;word-spacing:0px;fill:#000000;fill-opacity:1;stroke:none;stroke-width:1px;stroke-linecap:butt;stroke-linejoin:miter;stroke-opacity:1"><flowRegion
           id="flowRegion4870"><rect
             id="rect4872"
             width="41.416256"
             height="42.426407"
             x="653.56873"
             y="456.37219" /></flowRegion><flowPara
           id="flowPara4874">CERATEA</flowPara></flowRoot>    </g>
  </g>
</svg>
